<?xml version="1.0" standalone="no"?><!DOCTYPE svg PUBLIC "-//W3C//DTD SVG 1.1//EN" "http://www.w3.org/Graphics/SVG/1.1/DTD/svg11.dtd"><svg t="1566480156264" class="icon" viewBox="0 0 1309 1024" version="1.1" xmlns="http://www.w3.org/2000/svg" p-id="3338" xmlns:xlink="http://www.w3.org/1999/xlink" width="255.6640625" height="200"><defs><style type="text/css"></style></defs><path d="M981.334016 1024 327.112704 1024 99.55328 454.111232c-55.704576-5.08928-99.552256-53.330944-99.552256-112.777216 0-62.843904 48.812032-113.777664 109.036544-113.777664s109.036544 50.93376 109.036544 113.777664c0 24.139776-7.310336 46.434304-19.596288 64.843776C236.981248 469.63712 304.27136 512.007168 381.623296 512.007168c101.506048 0 186.044416-72.701952 210.37056-170.673152l7.703552 0L599.697408 211.774464c-32.459776-19.703808-54.51264-55.985152-54.51264-97.995776C545.185792 50.93376 593.997824 0 654.22336 0s109.037568 50.93376 109.037568 113.777664c0 42.011648-22.065152 78.291968-54.524928 97.995776l0 129.559552 7.714816 0c24.326144 97.970176 108.877824 170.673152 210.358272 170.673152 77.351936 0 144.653312-42.370048 183.15776-105.829376-12.29824-18.409472-19.596288-40.702976-19.596288-64.843776 0-62.843904 48.812032-113.777664 109.036544-113.777664 60.225536 0 109.037568 50.93376 109.037568 113.777664 0 59.446272-43.848704 107.675648-99.552256 112.777216L981.334016 1024z" p-id="3339"></path></svg>